<?xml version="1.0" encoding="UTF-8" standalone="no"?>
<!-- Created with Inkscape (http://www.inkscape.org/) -->

<svg
   version="1.1"
   id="svg1"
   width="500"
   height="500"
   viewBox="0 0 500 500"
   xml:space="preserve"
   xmlns="http://www.w3.org/2000/svg"
   xmlns:svg="http://www.w3.org/2000/svg"><defs
     id="defs1" /><g
     id="g1"><g
       id="g15"
       transform="translate(-18.458115,17.456304)"><path
         d="m 317.97645,66.550742 c -17.38497,0 -31.38085,13.995883 -31.38085,31.380859 v 85.373039 c 0,17.38498 13.99588,31.38086 31.38085,31.38086 H 402.287 c 17.38498,0 31.38086,-13.99588 31.38086,-31.38086 V 97.931601 c 0,-17.384976 -13.99588,-31.380859 -31.38086,-31.380859 z m 0.0156,32.154297 h 84.2793 V 182.5312 h -84.2793 z"
         style="fill:#60a5fb;fill-opacity:1;stroke:#60a5fb;stroke-width:2.64146;stroke-linecap:square;stroke-linejoin:round;stroke-opacity:1;paint-order:stroke fill markers"
         id="path15" /><path
         d="m 134.30849,133.24605 c -17.38498,0 -31.38085,13.99588 -31.38085,31.38086 v 85.37304 32.10353 85.37304 c 0,17.38497 13.99587,31.38086 31.38085,31.38086 h 84.31054 33.71875 84.3086 c 17.38497,0 31.38086,-13.99589 31.38086,-31.38086 v -85.37305 c 0,-17.38498 -13.99589,-31.38086 -31.38086,-31.38086 h -84.3086 c -0.78967,0 -1.56319,0.0604 -2.33788,0.11719 -0.0142,0.001 -0.0287,8.9e-4 -0.043,0.002 9.9e-4,-0.0399 0.005,-0.0791 0.006,-0.11914 C 249.9679,250.48006 250,250.24396 250,250 v -85.37309 c 0,-17.38497 -13.99588,-31.38085 -31.38085,-31.38085 z m 0.0156,32.15429 h 84.2793 v 83.82618 h -84.2793 z m 1.10156,116.37305 h 84.28125 v 83.82813 h -84.28126 z m 116.92579,1.10352 h 84.28124 v 83.82617 h -84.28124 z"
         style="fill:#60a5fb;fill-opacity:1;stroke:#60a5fb;stroke-width:2;stroke-linecap:square;stroke-linejoin:round;stroke-opacity:1;paint-order:stroke fill markers"
         id="path14" /></g></g></svg>
